<svg xmlns="http://www.w3.org/2000/svg" viewBox="0 0 640 520" fill="none" role="img" aria-labelledby="st-title">
  <title id="st-title">Regulated partners, client due diligence, faster onboarding</title>
  <rect width="640" height="520" rx="20" fill="#ecfdf5"/>
  <text x="320" y="42" text-anchor="middle" font-family="system-ui,sans-serif" font-size="15" font-weight="700" fill="#0f172a">Trust you can verify</text>

  <!-- Shield / regulated -->
  <rect x="32" y="72" width="184" height="200" rx="16" fill="#fff" stroke="#22c55e" stroke-width="2.5"/>
  <g transform="translate(124 118)">
    <path d="M0-36l40 17v34c0 34-40 56-40 56s-40-22-40-56v-34l40-17z" fill="#dcfce7" stroke="#16a34a" stroke-width="2"/>
    <path d="M-18 8l12 12 24-30" stroke="#16a34a" stroke-width="4.5" stroke-linecap="round" stroke-linejoin="round"/>
  </g>
  <text x="124" y="228" text-anchor="middle" font-family="system-ui,sans-serif" font-size="12" font-weight="700" fill="#15803d">Regulated &amp; licensed</text>
  <text x="124" y="248" text-anchor="middle" font-family="system-ui,sans-serif" font-size="10" fill="#6b7280">Partners with standing</text>
  <text x="124" y="264" text-anchor="middle" font-family="system-ui,sans-serif" font-size="10" fill="#6b7280">in their markets</text>

  <!-- Due diligence -->
  <rect x="228" y="72" width="184" height="200" rx="16" fill="#fff" stroke="#e5e7eb" stroke-width="2"/>
  <g transform="translate(320 128)">
    <rect x="-58" y="-38" width="72" height="12" rx="3" fill="#f3f4f6"/>
    <rect x="-58" y="-20" width="58" height="9" rx="2" fill="#e5e7eb"/>
    <rect x="-58" y="-6" width="64" height="9" rx="2" fill="#e5e7eb"/>
    <rect x="-58" y="8" width="48" height="9" rx="2" fill="#e5e7eb"/>
    <circle cx="0" cy="38" r="18" fill="#22c55e"/>
    <path d="M-6 38l5 5 12-14" stroke="#fff" stroke-width="2.5" stroke-linecap="round" stroke-linejoin="round"/>
  </g>
  <text x="320" y="218" text-anchor="middle" font-family="system-ui,sans-serif" font-size="12" font-weight="700" fill="#0f172a">Your due diligence</text>
  <text x="320" y="240" text-anchor="middle" font-family="system-ui,sans-serif" font-size="10" fill="#6b7280">Licences, KYC &amp; commercial</text>
  <text x="320" y="256" text-anchor="middle" font-family="system-ui,sans-serif" font-size="10" fill="#6b7280">checks — you decide fit</text>

  <!-- Fast onboarding -->
  <rect x="424" y="72" width="184" height="200" rx="16" fill="#fff" stroke="#e5e7eb" stroke-width="2"/>
  <path d="M456 160h120" stroke="#e5e7eb" stroke-width="8" stroke-linecap="round"/>
  <path d="M456 160h88" stroke="#22c55e" stroke-width="8" stroke-linecap="round"/>
  <text x="516" y="148" text-anchor="middle" font-family="system-ui,sans-serif" font-size="11" font-weight="700" fill="#15803d">Weeks</text>
  <text x="516" y="188" text-anchor="middle" font-family="system-ui,sans-serif" font-size="22" font-weight="700" fill="#0f172a">→</text>
  <text x="516" y="218" text-anchor="middle" font-family="system-ui,sans-serif" font-size="12" font-weight="700" fill="#0f172a">Faster onboarding</text>
  <text x="516" y="240" text-anchor="middle" font-family="system-ui,sans-serif" font-size="10" fill="#6b7280">Light intake · direct</text>
  <text x="516" y="256" text-anchor="middle" font-family="system-ui,sans-serif" font-size="10" fill="#6b7280">partner go-live</text>

  <!-- Bottom strip -->
  <rect x="48" y="300" width="544" height="188" rx="16" fill="#fff" stroke="#bbf7d0" stroke-width="2"/>
  <text x="320" y="336" text-anchor="middle" font-family="system-ui,sans-serif" font-size="13" font-weight="700" fill="#0f172a">CLETHOS Introductions — curated, transparent, built for speed</text>
  <text x="120" y="372" text-anchor="middle" font-family="system-ui,sans-serif" font-size="11" fill="#4b5563">✓ In-house partners</text>
  <text x="120" y="394" text-anchor="middle" font-family="system-ui,sans-serif" font-size="11" fill="#4b5563">not a marketplace</text>
  <text x="320" y="372" text-anchor="middle" font-family="system-ui,sans-serif" font-size="11" fill="#4b5563">✓ Escrow fee · refund</text>
  <text x="320" y="394" text-anchor="middle" font-family="system-ui,sans-serif" font-size="11" fill="#4b5563">if no match</text>
  <text x="520" y="372" text-anchor="middle" font-family="system-ui,sans-serif" font-size="11" fill="#4b5563">✓ Upgrade path to</text>
  <text x="520" y="394" text-anchor="middle" font-family="system-ui,sans-serif" font-size="11" fill="#4b5563">full CLETHOS later</text>
  <rect x="80" y="418" width="480" height="48" rx="10" fill="#f0fdf4" stroke="#86efac" stroke-width="1"/>
  <text x="320" y="448" text-anchor="middle" font-family="system-ui,sans-serif" font-size="11" font-weight="600" fill="#15803d">You contract directly with the partner — we facilitate the introduction</text>
</svg>
